<svg data-v-fde0c5aa="" xmlns="http://www.w3.org/2000/svg" viewBox="0 0 300 300" class="iconAboveSlogan"><!----><defs data-v-fde0c5aa=""><!----></defs><rect data-v-fde0c5aa="" fill="transparent" x="0" y="0" width="300px" height="300px" class="logo-background-square"></rect><defs data-v-fde0c5aa=""><!----></defs><g data-v-fde0c5aa="" id="08fef392-57d1-433b-a4b6-88a05efc305b" fill="#000000" transform="matrix(3.138580534691275,0,0,3.138580534691275,19.215354866327182,159.15905746206158)"><path d="M10.04 10.19L8.24 10.19L9.42 4.15Q9.50 3.77 9.58 3.39Q9.67 3.00 9.75 2.68L9.75 2.68Q9.84 2.30 9.93 1.95L9.93 1.95Q9.68 2.48 9.45 2.98L9.45 2.98Q9.36 3.19 9.25 3.42Q9.15 3.64 9.04 3.86Q8.94 4.07 8.85 4.27Q8.76 4.46 8.67 4.61L8.67 4.61L5.86 10.19L4.42 10.19L3.78 4.59Q3.77 4.46 3.75 4.28Q3.73 4.10 3.70 3.89Q3.68 3.68 3.65 3.45Q3.63 3.23 3.61 3.01L3.61 3.01Q3.56 2.51 3.51 1.95L3.51 1.95Q3.46 2.37 3.41 2.77L3.41 2.77Q3.39 2.94 3.37 3.12Q3.34 3.31 3.32 3.49Q3.29 3.66 3.27 3.83Q3.24 3.99 3.21 4.13L3.21 4.13L2.04 10.19L0.25 10.19L2.12 0.56L4.82 0.56L5.42 5.95Q5.45 6.16 5.48 6.48Q5.50 6.79 5.53 7.10L5.53 7.10Q5.56 7.46 5.59 7.83L5.59 7.83Q5.76 7.46 5.93 7.11L5.93 7.11Q6.06 6.81 6.22 6.50Q6.37 6.19 6.47 5.98L6.47 5.98L9.22 0.56L11.91 0.56L10.04 10.19ZM19.76 5.52L19.76 5.52Q19.76 6.64 19.43 7.53Q19.09 8.42 18.50 9.04Q17.90 9.67 17.09 10.00Q16.28 10.33 15.32 10.33L15.32 10.33Q14.59 10.33 13.99 10.13Q13.40 9.93 12.97 9.54Q12.55 9.15 12.32 8.60Q12.09 8.04 12.09 7.33L12.09 7.33Q12.09 6.27 12.41 5.41Q12.73 4.55 13.31 3.94Q13.89 3.33 14.70 3.00Q15.50 2.67 16.47 2.67L16.47 2.67Q17.28 2.67 17.90 2.86Q18.51 3.05 18.93 3.42Q19.34 3.79 19.55 4.32Q19.76 4.85 19.76 5.52ZM17.75 5.67L17.75 5.67Q17.75 5.22 17.65 4.89Q17.55 4.57 17.37 4.37Q17.19 4.17 16.92 4.07Q16.66 3.98 16.33 3.98L16.33 3.98Q16.03 3.98 15.72 4.05Q15.42 4.12 15.14 4.35Q14.86 4.57 14.63 4.99Q14.40 5.41 14.25 6.09L14.25 6.09Q14.17 6.42 14.14 6.71Q14.11 7 14.11 7.25L14.11 7.25Q14.11 7.74 14.22 8.07Q14.32 8.41 14.51 8.62Q14.70 8.83 14.96 8.92Q15.22 9.02 15.53 9.02L15.53 9.02Q15.84 9.02 16.14 8.95Q16.44 8.88 16.71 8.66Q16.99 8.44 17.21 8.02Q17.44 7.61 17.60 6.91L17.60 6.91Q17.67 6.56 17.71 6.26Q17.74 5.96 17.75 5.67ZM28.64 2.80L24.47 10.19L22.17 10.19L20.97 2.80L22.94 2.80L23.43 6.93Q23.45 7.14 23.47 7.38Q23.50 7.63 23.52 7.88Q23.54 8.12 23.55 8.35Q23.57 8.59 23.58 8.77L23.58 8.77Q23.65 8.59 23.75 8.36Q23.85 8.13 23.96 7.88Q24.08 7.64 24.19 7.40Q24.31 7.16 24.41 6.95L24.41 6.95L26.57 2.80L28.64 2.80ZM31.85 1.46L29.93 1.46L30.21 0.05L32.13 0.05L31.85 1.46ZM30.15 10.19L28.24 10.19L29.67 2.80L31.60 2.80L30.15 10.19ZM39.12 6.94L34.34 6.94Q34.31 7.09 34.30 7.24Q34.29 7.39 34.29 7.55L34.29 7.55Q34.29 8.27 34.61 8.66Q34.92 9.04 35.55 9.04L35.55 9.04Q35.83 9.04 36.06 8.96Q36.29 8.87 36.46 8.71Q36.64 8.56 36.77 8.35Q36.91 8.13 37.00 7.89L37.00 7.89L38.68 8.39Q38.47 8.83 38.21 9.19Q37.95 9.55 37.58 9.80Q37.20 10.06 36.67 10.19Q36.15 10.33 35.42 10.33L35.42 10.33Q34.67 10.33 34.09 10.12Q33.51 9.91 33.12 9.52Q32.72 9.13 32.52 8.57Q32.32 8.02 32.32 7.33L32.32 7.33Q32.32 6.21 32.62 5.35Q32.92 4.48 33.44 3.88Q33.97 3.28 34.71 2.97Q35.44 2.66 36.31 2.66L36.31 2.66Q37.07 2.66 37.63 2.86Q38.19 3.07 38.56 3.44Q38.93 3.81 39.11 4.33Q39.29 4.85 39.29 5.47L39.29 5.47Q39.29 5.78 39.24 6.18Q39.20 6.58 39.12 6.94L39.12 6.94ZM34.56 5.66L37.51 5.66Q37.52 5.55 37.53 5.46Q37.53 5.37 37.53 5.28L37.53 5.28Q37.53 4.55 37.19 4.21Q36.85 3.88 36.31 3.88L36.31 3.88Q36.07 3.88 35.81 3.95Q35.55 4.03 35.31 4.23Q35.07 4.43 34.87 4.77Q34.68 5.12 34.56 5.66L34.56 5.66ZM48.23 2.12L43.50 2.12L42.92 5.10L47.49 5.10L47.19 6.66L42.62 6.66L41.93 10.19L39.92 10.19L41.79 0.56L48.53 0.56L48.23 2.12ZM52.08 1.46L50.16 1.46L50.44 0.05L52.36 0.05L52.08 1.46ZM50.38 10.19L48.47 10.19L49.90 2.80L51.82 2.80L50.38 10.19ZM59.07 10.19L57.16 10.19L57.97 6.13Q58.00 6.00 58.03 5.84Q58.06 5.68 58.08 5.52Q58.11 5.37 58.13 5.23Q58.15 5.09 58.15 5.00L58.15 5.00Q58.15 4.57 57.89 4.34Q57.63 4.12 57.11 4.12L57.11 4.12Q56.79 4.12 56.46 4.25Q56.14 4.39 55.87 4.64Q55.59 4.89 55.38 5.25Q55.17 5.61 55.09 6.05L55.09 6.05L54.28 10.19L52.36 10.19L53.49 4.38Q53.54 4.14 53.58 3.89Q53.63 3.63 53.66 3.40Q53.70 3.17 53.72 3.01Q53.74 2.84 53.75 2.80L53.75 2.80L55.58 2.80Q55.58 2.83 55.57 2.98Q55.55 3.13 55.52 3.33Q55.50 3.52 55.47 3.72Q55.45 3.92 55.42 4.06L55.42 4.06L55.44 4.06Q55.64 3.77 55.89 3.52Q56.14 3.27 56.45 3.08Q56.76 2.88 57.14 2.78Q57.52 2.67 57.99 2.67L57.99 2.67Q59.03 2.67 59.55 3.17Q60.08 3.66 60.08 4.61L60.08 4.61Q60.08 4.73 60.06 4.89Q60.05 5.04 60.03 5.20Q60.01 5.35 59.98 5.49Q59.96 5.63 59.94 5.73L59.94 5.73L59.07 10.19ZM65.82 9.10L65.79 9.10Q65.54 9.42 65.28 9.65Q65.02 9.88 64.73 10.04Q64.44 10.19 64.10 10.26Q63.76 10.34 63.35 10.34L63.35 10.34Q62.80 10.34 62.37 10.14Q61.95 9.95 61.66 9.61Q61.37 9.27 61.22 8.80Q61.07 8.33 61.07 7.77L61.07 7.77Q61.07 7.46 61.10 7.11Q61.13 6.75 61.21 6.32L61.21 6.32Q61.40 5.35 61.73 4.66Q62.06 3.96 62.50 3.52Q62.95 3.08 63.49 2.87Q64.03 2.66 64.63 2.66L64.63 2.66Q65.13 2.66 65.50 2.77Q65.86 2.87 66.12 3.06Q66.38 3.24 66.54 3.49Q66.70 3.73 66.78 4.01L66.78 4.01L66.81 4.01Q66.83 3.88 66.87 3.60Q66.91 3.33 66.99 2.91L66.99 2.91L67.57 0.05L69.46 0.05L67.83 8.61Q67.76 9.03 67.71 9.43Q67.66 9.82 67.63 10.19L67.63 10.19L65.71 10.19Q65.71 10.14 65.72 10.03Q65.72 9.92 65.73 9.77Q65.75 9.62 65.77 9.45Q65.79 9.28 65.82 9.10L65.82 9.10ZM64.19 9.02L64.19 9.02Q64.55 9.02 64.88 8.90Q65.20 8.79 65.47 8.51Q65.75 8.24 65.96 7.77Q66.17 7.30 66.31 6.59L66.31 6.59Q66.36 6.29 66.39 6.03Q66.42 5.76 66.42 5.54L66.42 5.54Q66.42 4.72 66.10 4.34Q65.78 3.97 65.14 3.97L65.14 3.97Q64.82 3.97 64.52 4.08Q64.23 4.19 63.98 4.46Q63.74 4.73 63.54 5.19Q63.34 5.64 63.22 6.33L63.22 6.33Q63.16 6.68 63.13 6.96Q63.10 7.25 63.10 7.51L63.10 7.51Q63.10 8.23 63.36 8.62Q63.62 9.02 64.19 9.02ZM76.45 6.94L71.67 6.94Q71.64 7.09 71.63 7.24Q71.62 7.39 71.62 7.55L71.62 7.55Q71.62 8.27 71.94 8.66Q72.26 9.04 72.88 9.04L72.88 9.04Q73.17 9.04 73.39 8.96Q73.62 8.87 73.79 8.71Q73.97 8.56 74.10 8.35Q74.24 8.13 74.33 7.89L74.33 7.89L76.01 8.39Q75.80 8.83 75.54 9.19Q75.28 9.55 74.91 9.80Q74.53 10.06 74.01 10.19Q73.48 10.33 72.75 10.33L72.75 10.33Q72.00 10.33 71.42 10.12Q70.84 9.91 70.45 9.52Q70.05 9.13 69.85 8.57Q69.65 8.02 69.65 7.33L69.65 7.33Q69.65 6.21 69.95 5.35Q70.25 4.48 70.78 3.88Q71.31 3.28 72.04 2.97Q72.77 2.66 73.64 2.66L73.64 2.66Q74.40 2.66 74.96 2.86Q75.52 3.07 75.89 3.44Q76.26 3.81 76.44 4.33Q76.62 4.85 76.62 5.47L76.62 5.47Q76.62 5.78 76.57 6.18Q76.53 6.58 76.45 6.94L76.45 6.94ZM71.89 5.66L74.84 5.66Q74.85 5.55 74.86 5.46Q74.86 5.37 74.86 5.28L74.86 5.28Q74.86 4.55 74.52 4.21Q74.18 3.88 73.64 3.88L73.64 3.88Q73.40 3.88 73.14 3.95Q72.88 4.03 72.64 4.23Q72.40 4.43 72.20 4.77Q72.01 5.12 71.89 5.66L71.89 5.66ZM83.09 2.75L82.78 4.36Q82.62 4.33 82.44 4.29Q82.26 4.26 82.00 4.26L82.00 4.26Q81.16 4.26 80.63 4.85Q80.10 5.45 79.86 6.68L79.86 6.68L79.17 10.19L77.25 10.19L78.35 4.52Q78.39 4.28 78.44 4.04Q78.48 3.80 78.51 3.58Q78.55 3.35 78.58 3.15Q78.61 2.95 78.63 2.80L78.63 2.80L80.47 2.80Q80.45 2.95 80.42 3.15Q80.40 3.36 80.37 3.57Q80.34 3.78 80.31 3.98Q80.28 4.17 80.26 4.31L80.26 4.31L80.29 4.31Q80.52 3.88 80.75 3.57Q80.98 3.26 81.23 3.06Q81.48 2.86 81.76 2.76Q82.04 2.66 82.39 2.66L82.39 2.66Q82.47 2.66 82.57 2.67Q82.67 2.68 82.77 2.69Q82.87 2.71 82.95 2.72Q83.04 2.74 83.09 2.75L83.09 2.75Z"></path></g><defs data-v-fde0c5aa=""><linearGradient data-v-fde0c5aa="" gradientTransform="rotate(25)" id="eb140efc-23b6-4bec-b4e8-6f93183b3314" x1="0%" y1="0%" x2="100%" y2="0%"><stop data-v-fde0c5aa="" offset="0%" stop-color="#D6413F" stop-opacity="1"></stop><stop data-v-fde0c5aa="" offset="100%" stop-color="#4285D3" stop-opacity="1"></stop></linearGradient></defs><g data-v-fde0c5aa="" id="4e3238b1-8da3-45d0-be02-f6e40bc8f3bb" stroke="none" fill="url(#eb140efc-23b6-4bec-b4e8-6f93183b3314)" transform="matrix(1.2961886511012062,0,0,1.2961886511012062,84.71097532008561,53.913985363506974)"><path d="M88.89 30.83c-2.25 0-4.24 1.13-5.43 2.85a6.614 6.614 0 00-5.44-2.85c-3.65 0-6.63 2.98-6.63 6.63 0 2.79 1.74 5.19 4.19 6.16v1.29l-6.11-2.75v10.57l6.11-2.64v2.18h5.5l-4.06 13.48c-.16.76.35 1.51 1.11 1.65.09.02.19.03.27.03.66 0 1.26-.47 1.38-1.14l3.67-11.46 3.66 11.46c.15.67.74 1.14 1.4 1.14.09 0 .17-.01.27-.03.76-.14 1.25-.89 1.11-1.65l-4.07-13.48h5.51v-8.65a6.638 6.638 0 004.19-6.16c0-3.65-2.98-6.63-6.63-6.63zm-6.63 6.71a4.245 4.245 0 01-4.24 4.16c-2.34 0-4.26-1.9-4.26-4.24s1.92-4.26 4.26-4.26c2.31 0 4.19 1.86 4.24 4.16v.18zm6.63 4.16c-2.31 0-4.2-1.84-4.26-4.14v-.14c.03-2.33 1.94-4.22 4.26-4.22 2.34 0 4.25 1.92 4.25 4.26s-1.91 4.24-4.25 4.24zM49.83 30.07H8.1c-1.59 0-2.88 1.28-2.88 2.87v29.88c0 1.59 1.29 2.87 2.88 2.87h41.73c1.59 0 2.88-1.28 2.88-2.87V32.94c0-1.59-1.29-2.87-2.88-2.87zm-.52 32.23H8.62V33.46h40.69V62.3z"></path><path d="M38.17 47.14c-.36-4.51-3.97-8.11-8.47-8.46v-3.54h-1.47v3.54c-4.5.36-8.1 3.96-8.46 8.46h-3.54v1.48h3.54c.36 4.5 3.96 8.1 8.46 8.46v3.54h1.47v-3.54c4.5-.35 8.11-3.95 8.47-8.46h3.53v-1.48h-3.53zm-9.94 7.72a7.014 7.014 0 01-6.24-6.24h6.24v6.24zm0-7.72h-6.24c.34-3.28 2.95-5.9 6.24-6.24v6.24zm1.47 7.72v-6.24h6.25c-.34 3.28-2.97 5.9-6.25 6.24zm0-7.72V40.9c3.28.34 5.91 2.96 6.25 6.24H29.7zM65.337 39.797l1.02-1.719 1.72 1.02-1.02 1.72zM61.898 37.758l1.02-1.72 1.72 1.02-1.02 1.72zM59.47 34.01l-1.01 1.72 1.72 1.02 1.02-1.72zM55.008 33.688l1.02-1.72 1.72 1.02-1.02 1.72zM56.73 60.09l-1.72 1.01 1.02 1.72 1.72-1.01zM60.18 58.05l-1.72 1.02 1.01 1.72 1.73-1.02zM63.62 56.02l-1.72 1.01 1.02 1.72 1.72-1.01zM65.34 55.005l1.721-1.02 1.02 1.72-1.72 1.02z"></path></g><defs data-v-fde0c5aa=""><!----></defs><g data-v-fde0c5aa="" id="89c3ecbc-ca8b-4ee6-86e0-af02b3f32b09" fill="#000000" transform="matrix(0.4891140854378914,0,0,0.4891140854378914,52.48043543519769,200.58484055229854)"><path d="M5.29 2.21L3.98 2.21L0.04 11.48L1.20 11.48L2.34 8.79L6.93 8.79L8.06 11.48L9.23 11.48ZM2.74 7.83L4.63 3.30L6.52 7.83ZM17.40 2.21L17.40 11.48L23.51 11.48L23.51 10.47L18.45 10.47L18.45 2.21ZM31.86 2.21L31.86 11.48L37.97 11.48L37.97 10.47L32.91 10.47L32.91 2.21ZM62.89 2.21L55.37 2.21L55.37 3.22L58.60 3.22L58.60 11.48L59.65 11.48L59.65 3.22L62.89 3.22ZM77.66 2.21L77.66 6.33L72.27 6.33L72.27 2.21L71.22 2.21L71.22 11.48L72.27 11.48L72.27 7.35L77.66 7.35L77.66 11.48L78.71 11.48L78.71 2.21ZM94.79 3.22L94.79 2.21L87.98 2.21L87.98 11.48L94.79 11.48L94.79 10.47L89.03 10.47L89.03 7.35L94.18 7.35L94.18 6.33L89.03 6.33L89.03 3.22ZM121.27 2.21L118.01 6.61L114.69 2.21L113.47 2.21L113.47 11.48L114.52 11.48L114.52 3.81L118.01 8.22L121.44 3.81L121.44 11.48L122.49 11.48L122.49 2.21ZM135.87 2.10C133.06 2.10 131.17 4.21 131.17 6.85C131.17 9.48 133.06 11.59 135.87 11.59C138.68 11.59 140.57 9.48 140.57 6.85C140.57 4.21 138.68 2.10 135.87 2.10ZM135.87 10.57C133.62 10.57 132.22 8.93 132.22 6.85C132.22 4.76 133.62 3.12 135.87 3.12C138.12 3.12 139.52 4.76 139.52 6.85C139.52 8.93 138.12 10.57 135.87 10.57ZM155.55 2.21L152.35 10.29L149.14 2.21L147.99 2.21L151.75 11.48L152.95 11.48L156.70 2.21ZM165.93 2.21L164.88 2.21L164.88 11.48L165.93 11.48ZM182.01 3.22L182.01 2.21L175.20 2.21L175.20 11.48L182.01 11.48L182.01 10.47L176.25 10.47L176.25 7.35L181.40 7.35L181.40 6.33L176.25 6.33L176.25 3.22ZM191.21 4.65C191.21 4.03 191.58 3.08 193.68 3.08C195.37 3.08 196.15 3.82 196.27 4.75L197.34 4.75C197.26 3.36 196.14 2.10 193.68 2.10C191.35 2.10 190.19 3.15 190.19 4.66C190.19 7.84 196.53 6.69 196.53 8.96C196.53 10.05 195.55 10.60 193.98 10.60C192.37 10.60 191.07 10.05 191.00 8.71L189.91 8.71C190.05 10.37 191.17 11.59 193.91 11.59C196.20 11.59 197.58 10.64 197.58 8.92C197.58 5.68 191.21 6.80 191.21 4.65ZM205.23 13.34L206.18 13.34L207.41 10.36L206.04 10.36ZM230.43 2.21L229.11 2.21L225.18 11.48L226.34 11.48L227.47 8.79L232.06 8.79L233.20 11.48L234.36 11.48ZM227.88 7.83L229.77 3.30L231.66 7.83ZM242.54 2.21L242.54 11.48L248.64 11.48L248.64 10.47L243.59 10.47L243.59 2.21ZM257.00 2.21L257.00 11.48L263.10 11.48L263.10 10.47L258.05 10.47L258.05 2.21ZM288.02 2.21L280.50 2.21L280.50 3.22L283.74 3.22L283.74 11.48L284.79 11.48L284.79 3.22L288.02 3.22ZM302.79 2.21L302.79 6.33L297.40 6.33L297.40 2.21L296.35 2.21L296.35 11.48L297.40 11.48L297.40 7.35L302.79 7.35L302.79 11.48L303.84 11.48L303.84 2.21ZM319.93 3.22L319.93 2.21L313.11 2.21L313.11 11.48L319.93 11.48L319.93 10.47L314.16 10.47L314.16 7.35L319.31 7.35L319.31 6.33L314.16 6.33L314.16 3.22ZM345.18 2.21L337.67 2.21L337.67 3.22L340.90 3.22L340.90 11.48L341.95 11.48L341.95 3.22L345.18 3.22ZM354.56 2.21L353.51 2.21L353.51 11.48L354.56 11.48ZM371.63 2.21L368.37 6.61L365.05 2.21L363.83 2.21L363.83 11.48L364.88 11.48L364.88 3.81L368.37 8.22L371.80 3.81L371.80 11.48L372.85 11.48L372.85 2.21ZM388.93 3.22L388.93 2.21L382.12 2.21L382.12 11.48L388.93 11.48L388.93 10.47L383.17 10.47L383.17 7.35L388.32 7.35L388.32 6.33L383.17 6.33L383.17 3.22ZM397.36 10.05L397.36 11.48L398.72 11.48L398.72 10.05ZM398.43 8.92L398.69 2.21L397.39 2.21L397.66 8.92Z"></path></g></svg>