<svg data-v-423bf9ae="" xmlns="http://www.w3.org/2000/svg" viewBox="0 0 483.03205040812907 60" class="font"><!----><!----><!----><g data-v-423bf9ae="" id="eb682a8f-a140-4c04-a36e-78c0b5cb6a33" fill="black" transform="matrix(5.830903811703725,0,0,5.830903811703725,-1.4577294284748348,-0.2915449260787142)"><path d="M10.04 10.19L8.24 10.19L9.42 4.15Q9.50 3.77 9.58 3.39Q9.67 3.00 9.75 2.68L9.75 2.68Q9.84 2.30 9.93 1.95L9.93 1.95Q9.68 2.48 9.45 2.98L9.45 2.98Q9.36 3.19 9.25 3.42Q9.15 3.64 9.04 3.86Q8.94 4.07 8.85 4.27Q8.76 4.46 8.67 4.61L8.67 4.61L5.86 10.19L4.42 10.19L3.78 4.59Q3.77 4.46 3.75 4.28Q3.73 4.10 3.70 3.89Q3.68 3.68 3.65 3.45Q3.63 3.23 3.61 3.01L3.61 3.01Q3.56 2.51 3.51 1.95L3.51 1.95Q3.46 2.37 3.41 2.77L3.41 2.77Q3.39 2.94 3.37 3.12Q3.34 3.31 3.32 3.49Q3.29 3.66 3.27 3.83Q3.24 3.99 3.21 4.13L3.21 4.13L2.04 10.19L0.25 10.19L2.12 0.56L4.82 0.56L5.42 5.95Q5.45 6.16 5.48 6.48Q5.50 6.79 5.53 7.10L5.53 7.10Q5.56 7.46 5.59 7.83L5.59 7.83Q5.76 7.46 5.93 7.11L5.93 7.11Q6.06 6.81 6.22 6.50Q6.37 6.19 6.47 5.98L6.47 5.98L9.22 0.56L11.91 0.56L10.04 10.19ZM19.76 5.52L19.76 5.52Q19.76 6.64 19.43 7.53Q19.09 8.42 18.50 9.04Q17.90 9.67 17.09 10.00Q16.28 10.33 15.32 10.33L15.32 10.33Q14.59 10.33 13.99 10.13Q13.40 9.93 12.97 9.54Q12.55 9.15 12.32 8.60Q12.09 8.04 12.09 7.33L12.09 7.33Q12.09 6.27 12.41 5.41Q12.73 4.55 13.31 3.94Q13.89 3.33 14.70 3.00Q15.50 2.67 16.47 2.67L16.47 2.67Q17.28 2.67 17.90 2.86Q18.51 3.05 18.93 3.42Q19.34 3.79 19.55 4.32Q19.76 4.85 19.76 5.52ZM17.75 5.67L17.75 5.67Q17.75 5.22 17.65 4.89Q17.55 4.57 17.37 4.37Q17.19 4.17 16.92 4.07Q16.66 3.98 16.33 3.98L16.33 3.98Q16.03 3.98 15.72 4.05Q15.42 4.12 15.14 4.35Q14.86 4.57 14.63 4.99Q14.40 5.41 14.25 6.09L14.25 6.09Q14.17 6.42 14.14 6.71Q14.11 7 14.11 7.25L14.11 7.25Q14.11 7.74 14.22 8.07Q14.32 8.41 14.51 8.62Q14.70 8.83 14.96 8.92Q15.22 9.02 15.53 9.02L15.53 9.02Q15.84 9.02 16.14 8.95Q16.44 8.88 16.71 8.66Q16.99 8.44 17.21 8.02Q17.44 7.61 17.60 6.91L17.60 6.91Q17.67 6.56 17.71 6.26Q17.74 5.96 17.75 5.67ZM28.64 2.80L24.47 10.19L22.17 10.19L20.97 2.80L22.94 2.80L23.43 6.93Q23.45 7.14 23.47 7.38Q23.50 7.63 23.52 7.88Q23.54 8.12 23.55 8.35Q23.57 8.59 23.58 8.77L23.58 8.77Q23.65 8.59 23.75 8.36Q23.85 8.13 23.96 7.88Q24.08 7.64 24.19 7.40Q24.31 7.16 24.41 6.95L24.41 6.95L26.57 2.80L28.64 2.80ZM31.85 1.46L29.93 1.46L30.21 0.05L32.13 0.05L31.85 1.46ZM30.15 10.19L28.24 10.19L29.67 2.80L31.60 2.80L30.15 10.19ZM39.12 6.94L34.34 6.94Q34.31 7.09 34.30 7.24Q34.29 7.39 34.29 7.55L34.29 7.55Q34.29 8.27 34.61 8.66Q34.92 9.04 35.55 9.04L35.55 9.04Q35.83 9.04 36.06 8.96Q36.29 8.87 36.46 8.71Q36.64 8.56 36.77 8.35Q36.91 8.13 37.00 7.89L37.00 7.89L38.68 8.39Q38.47 8.83 38.21 9.19Q37.95 9.55 37.58 9.80Q37.20 10.06 36.67 10.19Q36.15 10.33 35.42 10.33L35.42 10.33Q34.67 10.33 34.09 10.12Q33.51 9.91 33.12 9.52Q32.72 9.13 32.52 8.57Q32.32 8.02 32.32 7.33L32.32 7.33Q32.32 6.21 32.62 5.35Q32.92 4.48 33.44 3.88Q33.97 3.28 34.71 2.97Q35.44 2.66 36.31 2.66L36.31 2.66Q37.07 2.66 37.63 2.86Q38.19 3.07 38.56 3.44Q38.93 3.81 39.11 4.33Q39.29 4.85 39.29 5.47L39.29 5.47Q39.29 5.78 39.24 6.18Q39.20 6.58 39.12 6.94L39.12 6.94ZM34.56 5.66L37.51 5.66Q37.52 5.55 37.53 5.46Q37.53 5.37 37.53 5.28L37.53 5.28Q37.53 4.55 37.19 4.21Q36.85 3.88 36.31 3.88L36.31 3.88Q36.07 3.88 35.81 3.95Q35.55 4.03 35.31 4.23Q35.07 4.43 34.87 4.77Q34.68 5.12 34.56 5.66L34.56 5.66ZM48.23 2.12L43.50 2.12L42.92 5.10L47.49 5.10L47.19 6.66L42.62 6.66L41.93 10.19L39.92 10.19L41.79 0.56L48.53 0.56L48.23 2.12ZM52.08 1.46L50.16 1.46L50.44 0.05L52.36 0.05L52.08 1.46ZM50.38 10.19L48.47 10.19L49.90 2.80L51.82 2.80L50.38 10.19ZM59.07 10.19L57.16 10.19L57.97 6.13Q58.00 6.00 58.03 5.84Q58.06 5.68 58.08 5.52Q58.11 5.37 58.13 5.23Q58.15 5.09 58.15 5.00L58.15 5.00Q58.15 4.57 57.89 4.34Q57.63 4.12 57.11 4.12L57.11 4.12Q56.79 4.12 56.46 4.25Q56.14 4.39 55.87 4.64Q55.59 4.89 55.38 5.25Q55.17 5.61 55.09 6.05L55.09 6.05L54.28 10.19L52.36 10.19L53.49 4.38Q53.54 4.14 53.58 3.89Q53.63 3.63 53.66 3.40Q53.70 3.17 53.72 3.01Q53.74 2.84 53.75 2.80L53.75 2.80L55.58 2.80Q55.58 2.83 55.57 2.98Q55.55 3.13 55.52 3.33Q55.50 3.52 55.47 3.72Q55.45 3.92 55.42 4.06L55.42 4.06L55.44 4.06Q55.64 3.77 55.89 3.52Q56.14 3.27 56.45 3.08Q56.76 2.88 57.14 2.78Q57.52 2.67 57.99 2.67L57.99 2.67Q59.03 2.67 59.55 3.17Q60.08 3.66 60.08 4.61L60.08 4.61Q60.08 4.73 60.06 4.89Q60.05 5.04 60.03 5.20Q60.01 5.35 59.98 5.49Q59.96 5.63 59.94 5.73L59.94 5.73L59.07 10.19ZM65.82 9.10L65.79 9.10Q65.54 9.42 65.28 9.65Q65.02 9.88 64.73 10.04Q64.44 10.19 64.10 10.26Q63.76 10.34 63.35 10.34L63.35 10.34Q62.80 10.34 62.37 10.14Q61.95 9.95 61.66 9.61Q61.37 9.27 61.22 8.80Q61.07 8.33 61.07 7.77L61.07 7.77Q61.07 7.46 61.10 7.11Q61.13 6.75 61.21 6.32L61.21 6.32Q61.40 5.35 61.73 4.66Q62.06 3.96 62.50 3.52Q62.95 3.08 63.49 2.87Q64.03 2.66 64.63 2.66L64.63 2.66Q65.13 2.66 65.50 2.77Q65.86 2.87 66.12 3.06Q66.38 3.24 66.54 3.49Q66.70 3.73 66.78 4.01L66.78 4.01L66.81 4.01Q66.83 3.88 66.87 3.60Q66.91 3.33 66.99 2.91L66.99 2.91L67.57 0.05L69.46 0.05L67.83 8.61Q67.76 9.03 67.71 9.43Q67.66 9.82 67.63 10.19L67.63 10.19L65.71 10.19Q65.71 10.14 65.72 10.03Q65.72 9.92 65.73 9.77Q65.75 9.62 65.77 9.45Q65.79 9.28 65.82 9.10L65.82 9.10ZM64.19 9.02L64.19 9.02Q64.55 9.02 64.88 8.90Q65.20 8.79 65.47 8.51Q65.75 8.24 65.96 7.77Q66.17 7.30 66.31 6.59L66.31 6.59Q66.36 6.29 66.39 6.03Q66.42 5.76 66.42 5.54L66.42 5.54Q66.42 4.72 66.10 4.34Q65.78 3.97 65.14 3.97L65.14 3.97Q64.82 3.97 64.52 4.08Q64.23 4.19 63.98 4.46Q63.74 4.73 63.54 5.19Q63.34 5.64 63.22 6.33L63.22 6.33Q63.16 6.68 63.13 6.96Q63.10 7.25 63.10 7.51L63.10 7.51Q63.10 8.23 63.36 8.62Q63.62 9.02 64.19 9.02ZM76.45 6.94L71.67 6.94Q71.64 7.09 71.63 7.24Q71.62 7.39 71.62 7.55L71.62 7.55Q71.62 8.27 71.94 8.66Q72.26 9.04 72.88 9.04L72.88 9.04Q73.17 9.04 73.39 8.96Q73.62 8.87 73.79 8.71Q73.97 8.56 74.10 8.35Q74.24 8.13 74.33 7.89L74.33 7.89L76.01 8.39Q75.80 8.83 75.54 9.19Q75.28 9.55 74.91 9.80Q74.53 10.06 74.01 10.19Q73.48 10.33 72.75 10.33L72.75 10.33Q72.00 10.33 71.42 10.12Q70.84 9.91 70.45 9.52Q70.05 9.13 69.85 8.57Q69.65 8.02 69.65 7.33L69.65 7.33Q69.65 6.21 69.95 5.35Q70.25 4.48 70.78 3.88Q71.31 3.28 72.04 2.97Q72.77 2.66 73.64 2.66L73.64 2.66Q74.40 2.66 74.96 2.86Q75.52 3.07 75.89 3.44Q76.26 3.81 76.44 4.33Q76.62 4.85 76.62 5.47L76.62 5.47Q76.62 5.78 76.57 6.18Q76.53 6.58 76.45 6.94L76.45 6.94ZM71.89 5.66L74.84 5.66Q74.85 5.55 74.86 5.46Q74.86 5.37 74.86 5.28L74.86 5.28Q74.86 4.55 74.52 4.21Q74.18 3.88 73.64 3.88L73.64 3.88Q73.40 3.88 73.14 3.95Q72.88 4.03 72.64 4.23Q72.40 4.43 72.20 4.77Q72.01 5.12 71.89 5.66L71.89 5.66ZM83.09 2.75L82.78 4.36Q82.62 4.33 82.44 4.29Q82.26 4.26 82.00 4.26L82.00 4.26Q81.16 4.26 80.63 4.85Q80.10 5.45 79.86 6.68L79.86 6.68L79.17 10.19L77.25 10.19L78.35 4.52Q78.39 4.28 78.44 4.04Q78.48 3.80 78.51 3.58Q78.55 3.35 78.58 3.15Q78.61 2.95 78.63 2.80L78.63 2.80L80.47 2.80Q80.45 2.95 80.42 3.15Q80.40 3.36 80.37 3.57Q80.34 3.78 80.31 3.98Q80.28 4.17 80.26 4.31L80.26 4.31L80.29 4.31Q80.52 3.88 80.75 3.57Q80.98 3.26 81.23 3.06Q81.48 2.86 81.76 2.76Q82.04 2.66 82.39 2.66L82.39 2.66Q82.47 2.66 82.57 2.67Q82.67 2.68 82.77 2.69Q82.87 2.71 82.95 2.72Q83.04 2.74 83.09 2.75L83.09 2.75Z"></path></g><!----><!----></svg>